HIERARCHY
ROOT Hips
{
  OFFSET 3.13124 94.3669 -3.18751
  CHANNELS  6 Xposition Yposition Zposition Zrotation Xrotation Yrotation
  JOINT LeftUpLeg
  {
    OFFSET 8.64259 1.95398 -2.38835
    CHANNELS 3 Zrotation Xrotation Yrotation
    JOINT LeftLeg
    {
      OFFSET 43.7702 0 0
      CHANNELS 3 Zrotation Xrotation Yrotation
      JOINT LeftFoot
      {
        OFFSET 40.6238 0 0
        CHANNELS 3 Zrotation Xrotation Yrotation
        JOINT LeftToeBase
        {
          OFFSET 12.7242 0 0
          CHANNELS 3 Zrotation Xrotation Yrotation
          End Site
          {
            OFFSET 0 0 0
          }
        }
      }
    }
  }
  JOINT RightUpLeg
  {
    OFFSET -8.2249 1.95398 -2.59336
    CHANNELS 3 Zrotation Xrotation Yrotation
    JOINT RightLeg
    {
      OFFSET 43.5653 0 0
      CHANNELS 3 Zrotation Xrotation Yrotation
      JOINT RightFoot
      {
        OFFSET 40.6238 0 0
        CHANNELS 3 Zrotation Xrotation Yrotation
        JOINT RightToeBase
        {
          OFFSET 12.7242 0 0
          CHANNELS 3 Zrotation Xrotation Yrotation
          End Site
          {
            OFFSET 0 0 0
          }
        }
      }
    }
  }
  JOINT Spine
  {
    OFFSET 0.165834 0.87714 6.61349
    CHANNELS 3 Zrotation Xrotation Yrotation
    JOINT Spine1
    {
      OFFSET 7.38962 1.71661e-005 0
      CHANNELS 3 Zrotation Xrotation Yrotation
      JOINT Spine2
      {
        OFFSET 11.9445 1.14441e-005 0
        CHANNELS 3 Zrotation Xrotation Yrotation
        JOINT Spine3
        {
          OFFSET 14.7254 4.19617e-005 0
          CHANNELS 3 Zrotation Xrotation Yrotation
          JOINT Spine4
          {
            OFFSET 10.9679 0 0
            CHANNELS 3 Zrotation Xrotation Yrotation
            JOINT RightShoulder
            {
              OFFSET 2.46616 -1.6653 3.69651
              CHANNELS 3 Zrotation Xrotation Yrotation
              JOINT RightArm
              {
                OFFSET 13.0012 0 0
                CHANNELS 3 Zrotation Xrotation Yrotation
                JOINT RightForeArm
                {
                  OFFSET 28.7848 1.52588e-005 0
                  CHANNELS 3 Zrotation Xrotation Yrotation
                  JOINT RightHand
                  {
                    OFFSET 26.5688 1.52588e-005 0
                    CHANNELS 3 Zrotation Xrotation Yrotation
                    End Site
                    {
                      OFFSET 0 0 0
                    }
                  }
                }
              }
            }
            JOINT LeftShoulder
            {
              OFFSET 2.38034 -1.29275 -3.75231
              CHANNELS 3 Zrotation Xrotation Yrotation
              JOINT LeftArm
              {
                OFFSET 16.3182 6.10352e-005 0
                CHANNELS 3 Zrotation Xrotation Yrotation
                JOINT LeftForeArm
                {
                  OFFSET 27.0901 0 0
                  CHANNELS 3 Zrotation Xrotation Yrotation
                  JOINT LeftHand
                  {
                    OFFSET 24.5451 1.52588e-005 0
                    CHANNELS 3 Zrotation Xrotation Yrotation
                    End Site
                    {
                      OFFSET 0 0 0
                    }
                  }
                }
              }
            }
            JOINT Neck
            {
              OFFSET 5.0226 -0.0266342 0
              CHANNELS 3 Zrotation Xrotation Yrotation
              JOINT Head
              {
                OFFSET 6.69363 2.86102e-005 0
                CHANNELS 3 Zrotation Xrotation Yrotation
                End Site
                {
                  OFFSET 0 0 0
                }
              }
            }
          }
        }
      }
    }
  }
}
MOTION
Frames:	14
Frame Time:	0.0333333
3.02486 94.5939 1.86734 -89.9811 65.0433 -89.904 -160.199 7.68671 96.9493 -14.8761 7.8551 -1.17229 66.9569 7.68638 -10.1441 28.7808 7.84896e-006 -4.05806e-006 160.412 6.88845 84.3877 -14.4006 -18.9655 0.697482 65.9277 -2.01964 0.274145 28.7808 1.19511e-005 1.33979e-005 0.00881796 6.34017 -90.1104 14.1934 1.78212e-005 -1.14361e-006 2.5225 -5.60003e-006 -5.20205e-006 -20.0126 2.96713e-006 1.5241e-005 1.61021e-006 -4.0776e-006 -3.06725e-006 102.168 -18.2242 -82.1273 -14.903 -2.4496 -12.8298 -2.60307 1.27695 -11.6027 -0.211794 0.200574 2.37573 -77.7582 -21.1047 97.0905 15.2593 2.75943 -10.8147 2.47395 -1.76677 -7.38079 -0.225442 0.485213 1.41395 1.75276 0.000151532 8.12696e-006 -7.4102 0.000265498 0.000362383 
3.02449 94.5917 1.88106 -89.9815 65.0662 -89.9038 -160.219 7.71776 96.9359 -14.9314 7.84675 -1.1576 67.0167 7.70466 -10.1861 28.7808 7.84896e-006 -4.05806e-006 160.412 6.92061 84.392 -14.4243 -18.9837 0.697584 65.9274 -2.04461 0.261115 28.7808 1.19511e-005 1.33979e-005 0.00892947 6.34015 -90.1115 14.1934 1.78212e-005 -1.14361e-006 2.5225 -5.60003e-006 -5.20205e-006 -20.0126 2.96713e-006 1.5241e-005 1.61021e-006 -4.0776e-006 -3.06725e-006 102.187 -18.2232 -82.1207 -15.1287 -2.35488 -12.4889 -0.324093 11.7131 -10.2479 -2.08151 0.391752 0.0366295 -77.7434 -21.1058 97.0838 15.3176 2.83741 -10.8292 2.31039 -2.14248 -7.2767 -0.204489 0.356342 1.26705 1.61151 0.0244255 0.011833 -7.31643 0.0262679 0.0316692 
3.02385 94.5901 1.88707 -89.9992 65.078 -89.8937 -160.216 7.71748 96.9336 -14.9405 7.80424 -1.159 66.9532 7.65906 -10.1688 28.7808 7.84896e-006 -4.05806e-006 160.411 6.91806 84.3822 -14.416 -18.992 0.699708 65.9403 -2.01304 0.279862 28.7808 1.19511e-005 1.33979e-005 0.00894275 6.34014 -90.1117 14.1934 1.78212e-005 -1.14361e-006 2.5225 -5.60003e-006 -5.20205e-006 -20.0126 2.96713e-006 1.5241e-005 1.61021e-006 -4.0776e-006 -3.06725e-006 102.176 -18.2442 -82.1308 -15.3273 -2.30345 -12.2472 1.5239 21.1793 -9.16155 -3.58792 0.645457 -2.45914 -77.7471 -21.0846 97.0939 15.0862 2.62312 -10.7652 2.54035 -1.83775 -7.41628 -0.404422 -0.481716 1.30349 1.44637 0.0630829 0.151655 -7.23482 0.0296426 -0.0551041 
3.02821 94.5824 1.90231 -90.0792 65.0867 -89.8311 -160.219 7.72524 96.9252 -15.0219 7.77429 -1.14942 67.0492 7.743 -10.2497 28.7808 7.84896e-006 -4.05806e-006 160.409 6.88803 84.3694 -14.407 -18.8838 0.676592 66.0872 -1.85665 0.364206 28.7808 1.19511e-005 1.33979e-005 0.00846763 6.34024 -90.1063 14.1934 1.78212e-005 -1.14361e-006 2.5225 -5.60003e-006 -5.20205e-006 -20.0126 2.96713e-006 1.5241e-005 1.61021e-006 -4.0776e-006 -3.06725e-006 102.138 -18.2504 -82.1416 -15.789 -3.20307 -12.0034 3.55866 31.8459 -8.36697 -4.28012 0.975777 -4.98835 -77.7779 -21.0785 97.1049 15.2087 2.74716 -10.8152 2.26939 -2.61048 -7.32513 -0.629066 -0.85816 1.54109 1.22176 0.0925439 0.217577 -7.08337 0.0382852 -0.105332 
3.03223 94.5902 1.91002 -90.1612 65.084 -89.7503 -160.179 7.68085 96.9577 -14.9676 7.85429 -1.18976 67.0473 7.78968 -10.2283 28.7808 7.84896e-006 -4.05806e-006 160.399 6.88859 84.3582 -14.454 -19.0083 0.702782 65.9587 -2.05594 0.256989 28.7808 1.19511e-005 1.33979e-005 0.00851893 6.34021 -90.1078 14.1934 1.78212e-005 -1.14361e-006 2.5225 -5.60003e-006 -5.20205e-006 -20.0126 2.96713e-006 1.5241e-005 1.61021e-006 -4.0776e-006 -3.06725e-006 102.116 -18.2728 -82.156 -15.6068 -2.22582 -11.5772 5.75867 41.8549 -8.14946 -3.81604 1.23803 -8.22756 -77.7904 -21.0561 97.1196 15.0948 2.54317 -10.8526 2.26504 -2.49607 -7.45089 -0.917459 -0.843389 1.82533 0.952317 0.120478 0.268141 -6.95265 0.0365802 -0.0952911 
3.03614 94.5861 1.92123 -90.2474 65.0626 -89.684 -160.201 7.67775 96.9422 -15.0284 7.8159 -1.15807 67.0541 7.76427 -10.2822 28.7808 7.84896e-006 -4.05806e-006 160.377 6.89412 84.3307 -14.5153 -19.0508 0.716679 65.9587 -2.15626 0.20348 28.7808 1.19511e-005 1.33979e-005 0.00883773 6.34013 -90.1125 14.1934 1.78198e-005 -1.14393e-006 2.5225 -5.50274e-006 -5.11424e-006 -20.0126 2.96513e-006 1.52368e-005 1.65015e-006 -4.02928e-006 -3.00016e-006 102.118 -18.2741 -82.1116 -15.3923 -1.31341 -10.9032 10.3731 57.0854 -9.63914 -2.98312 1.54213 -11.7232 -77.8191 -21.0548 97.0745 15.213 3.09966 -10.9423 2.15918 -2.96665 -7.23277 -0.887605 -1.19966 1.58681 0.685919 0.127102 0.342695 -6.82322 0.0714722 -0.107156 
3.03805 94.59 1.92002 -90.2346 65.0599 -89.6969 -160.126 7.65805 96.983 -14.9376 7.81559 -1.24819 66.9785 7.8264 -10.311 28.7808 7.84896e-006 -4.05806e-006 160.393 6.88415 84.3379 -14.4887 -18.9936 0.701722 65.9752 -2.05423 0.257464 28.7808 1.19511e-005 1.33979e-005 0.0082263 6.34031 -90.1058 14.1933 -0.000290715 -0.000103205 2.52235 -0.000302719 -8.63061e-005 -20.0128 -0.00026597 -0.000185804 -0.000144038 -0.000259158 -0.000177712 102.14 -18.3011 -82.0703 -15.0592 0.0655418 -10.0599 19.4054 70.4081 -15.6229 -3.05845 1.95682 -16.7057 -77.8247 -21.0279 97.0324 15.1187 2.86748 -10.8539 2.03708 -3.06337 -7.40757 -1.16999 -1.0728 1.70177 0.499636 0.11567 0.373949 -6.70601 0.0837271 -0.112429 
3.04575 94.5962 1.9316 -90.2993 65.0189 -89.6621 -160.245 7.59005 96.9133 -14.8784 8.06022 -1.14513 66.9355 7.65957 -10.0103 28.7808 7.84896e-006 -4.05806e-006 160.377 6.86873 84.3151 -14.4914 -18.9633 0.692956 65.9594 -2.07361 0.244051 28.7808 1.19511e-005 1.33979e-005 -0.00471982 6.34945 -90.1098 14.1751 -0.0285338 -0.0116802 2.50415 -0.029045 -0.0103922 -20.031 -0.0236941 -0.0198105 -0.0183574 -0.0237022 -0.0198099 102.167 -18.2249 -82.1259 -14.675 1.00711 -9.44922 40.0456 80.0279 -34.1016 -0.999856 1.84159 -19.4082 -77.7598 -21.104 97.089 15.0871 2.97154 -10.9854 2.06333 -2.99602 -7.19484 -0.86049 -1.79283 1.77651 0.432689 0.153084 0.472038 -6.63145 0.0837528 -0.134655 
3.05859 94.5862 1.9467 -90.34 65.0212 -89.6131 -160.208 7.66166 96.939 -15.015 7.87169 -1.15449 66.9986 7.74254 -10.2244 28.7808 7.84896e-006 -4.05806e-006 160.395 6.88526 84.3275 -14.5569 -18.9591 0.68977 66.0182 -2.06639 0.24934 28.7808 1.19511e-005 1.33979e-005 -0.00443432 6.35367 -90.1172 14.1666 -0.0300939 -0.014339 2.49568 -0.030734 -0.0130099 -20.0395 -0.0243147 -0.0226794 -0.0268161 -0.0243343 -0.0226938 102.168 -18.2236 -82.1284 -14.1251 1.98241 -8.94346 98.609 83.8726 -90.8315 0.890485 1.60689 -22.2863 -77.7571 -21.1053 97.0916 15.0061 3.04131 -11.0908 2.17356 -2.86813 -7.09509 -1.04125 -1.84454 1.6435 0.388085 0.140484 0.453509 -6.60546 0.0735597 -0.165629 
3.07352 94.5874 1.95939 -90.3718 65.0077 -89.5734 -160.213 7.67076 96.9546 -15.0207 7.91374 -1.15526 66.9885 7.73059 -10.2002 28.7808 7.84896e-006 -4.05806e-006 160.398 6.896 84.3468 -14.5951 -18.9933 0.683326 65.9478 -2.15869 0.198238 28.7808 1.19511e-005 1.33979e-005 -0.00828204 6.35814 -90.1234 14.1577 -0.0385095 -0.0164382 2.48677 -0.0389925 -0.0150324 -20.0484 -0.0331689 -0.0265833 -0.035737 -0.0331723 -0.0265984 102.168 -18.2236 -82.1284 -13.5445 2.95362 -8.8056 117.753 83.0987 -109.547 1.84953 1.40031 -23.0253 -77.7571 -21.1053 97.0916 15.0604 3.21943 -11.0952 2.08236 -3.10953 -7.10305 -0.888754 -2.04652 1.69304 0.367831 0.114122 0.348956 -6.60414 0.0620675 -0.089382 
3.08997 94.5906 1.97842 -90.431 65.0744 -89.5161 -160.198 7.63713 96.9493 -14.997 7.7939 -1.11932 66.9777 7.73861 -10.2628 28.7808 7.84896e-006 -4.05806e-006 160.414 6.87335 84.3606 -14.5573 -18.9649 0.665352 65.9662 -2.04738 0.259454 28.7808 1.19511e-005 1.33979e-005 -0.0062229 6.36237 -90.1191 14.1493 -0.0345561 -0.0182961 2.47831 -0.035326 -0.0167467 -20.0568 -0.0274901 -0.0303432 -0.0441896 -0.0274917 -0.0303559 102.168 -18.2236 -82.1284 -13.1701 3.73644 -8.95763 122.53 82.9768 -114.172 2.17298 1.32565 -23.4797 -77.7571 -21.1053 97.0916 15.0564 3.3143 -11.1411 2.04525 -3.11015 -7.04795 -0.932277 -1.98922 1.61508 0.302373 0.11469 0.336326 -6.55282 0.0649483 -0.0675277 
3.09192 94.5891 1.98966 -90.3541 65.0339 -89.5932 -160.222 7.68193 96.9376 -15.0015 7.89511 -1.14388 66.9551 7.71912 -10.1801 28.7808 7.84896e-006 -4.05806e-006 160.381 6.89067 84.3332 -14.5019 -19.0116 0.723428 65.9666 -2.07612 0.245784 28.7808 1.19511e-005 1.33979e-005 -0.0102137 6.36143 -90.1229 14.1511 -0.0362207 -0.0197838 2.48015 -0.03705 -0.0178369 -20.055 -0.0287706 -0.0318684 -0.0423519 -0.0287774 -0.0318797 102.168 -18.2236 -82.1284 -13.0747 3.78582 -9.03507 123.012 82.9718 -114.731 1.58979 1.49423 -23.4867 -77.7571 -21.1053 97.0916 15.0224 3.27303 -11.2201 2.01178 -3.15342 -7.05523 -0.991292 -1.745 1.77135 0.271518 0.108858 0.350198 -6.47389 0.0628509 -0.0634849 
3.09728 94.5907 1.99906 -90.3665 65.0275 -89.5913 -160.219 7.67522 96.9329 -14.9842 7.89528 -1.15325 66.9433 7.72226 -10.1883 28.7808 7.84896e-006 -4.05806e-006 160.377 6.89051 84.3403 -14.504 -18.9752 0.694824 65.9662 -2.05001 0.258812 28.7808 1.19511e-005 1.33979e-005 -0.00689322 6.36386 -90.1259 14.145 -0.0398687 -0.0223497 2.47408 -0.0408282 -0.0203973 -20.061 -0.0302078 -0.0299964 -0.048412 -0.0302188 -0.0300091 102.168 -18.2236 -82.1284 -13.0235 3.66897 -9.11312 110.705 83.5822 -102.828 1.82792 1.381 -22.5979 -77.7571 -21.1053 97.0916 15.0597 3.39687 -11.3431 1.97136 -3.2322 -6.94588 -0.778521 -1.81871 1.65197 0.22152 0.104028 0.298325 -6.42923 0.059686 -0.0470041 
3.10115 94.5908 2.01676 -90.3675 64.9979 -89.5908 -160.227 7.68978 96.9181 -14.9907 7.88386 -1.14091 66.9293 7.73173 -10.2229 28.7808 7.84896e-006 -4.05806e-006 160.374 6.90229 84.3449 -14.5177 -18.9528 0.68721 65.9598 -2.05573 0.254121 28.7808 1.19511e-005 1.33979e-005 -0.00631535 6.36863 -90.1314 14.1335 -0.0441204 -0.0251054 2.46252 -0.0452315 -0.0232105 -20.0726 -0.0308529 -0.0338536 -0.0599896 -0.0308629 -0.0338751 102.168 -18.2236 -82.1284 -13.1047 3.28774 -9.142 107.883 83.7069 -100.132 1.42566 1.48672 -22.9555 -77.7571 -21.1053 97.0916 14.9728 3.3706 -11.4358 2.09686 -3.13075 -6.91297 -0.908343 -2.06129 1.62543 0.266243 0.111486 0.348352 -6.40051 0.0573862 -0.0766684 
